<?xml version="1.0" standalone="no"?>
<!DOCTYPE svg PUBLIC "-//W3C//DTD SVG 20010904//EN"
 "http://www.w3.org/TR/2001/REC-SVG-20010904/DTD/svg10.dtd">
<svg version="1.0" xmlns="http://www.w3.org/2000/svg"
 width="1080.000000pt" height="1080.000000pt" viewBox="0 0 1080.000000 1080.000000"
 preserveAspectRatio="xMidYMid meet">
<metadata>
Created by potrace 1.11, written by Peter Selinger 2001-2013
</metadata>
<g transform="translate(0.000000,1080.000000) scale(0.100000,-0.100000)"
fill="#000000" stroke="none">
<path d="M6734 9180 c-12 -19 -61 -114 -109 -210 -95 -190 -123 -236 -202
-332 -69 -83 -323 -323 -323 -306 0 34 -32 117 -54 141 -40 44 -52 36 -55 -35
-3 -104 -53 -192 -191 -333 -73 -75 -112 -106 -368 -295 -129 -95 -159 -114
-147 -90 18 36 7 44 -36 26 -44 -17 -109 -27 -109 -16 0 21 41 100 76 146 22
28 86 103 143 167 178 198 257 317 306 462 20 57 33 249 18 258 -5 3 -18 -20
-27 -51 -18 -58 -92 -209 -112 -227 -5 -5 -28 -32 -49 -60 -21 -27 -58 -71
-81 -96 l-42 -46 -5 52 c-3 29 -14 70 -25 91 -19 38 -58 81 -66 73 -2 -2 4
-35 14 -73 15 -59 15 -75 4 -112 -26 -89 -50 -117 -198 -244 -61 -53 -141
-133 -178 -179 -64 -80 -135 -199 -141 -237 -1 -11 -5 -23 -9 -29 -3 -5 -11
-36 -18 -67 l-13 -58 -68 6 c-64 6 -159 -9 -159 -25 0 -3 -13 -12 -29 -19 -36
-16 -89 -93 -97 -142 -6 -34 -9 -36 -108 -74 -55 -22 -162 -68 -236 -103
l-135 -64 -130 -5 c-176 -7 -206 -5 -232 12 -64 41 -70 153 -16 267 18 37 33
71 34 75 0 4 32 35 71 70 85 75 232 151 357 182 47 12 165 32 264 45 99 14
185 29 192 35 6 5 15 7 18 4 3 -3 12 -2 19 2 7 5 18 9 25 10 31 5 107 52 148
91 43 43 81 100 77 116 -1 4 2 7 7 7 11 0 61 151 61 182 -1 14 -24 -22 -60
-92 -85 -165 -154 -225 -309 -265 -55 -14 -242 -46 -271 -46 -37 -1 -191 -32
-250 -51 -70 -22 -189 -79 -211 -100 -8 -7 -27 -20 -42 -28 -51 -26 -163 -154
-198 -226 -30 -61 -33 -78 -34 -154 0 -73 4 -93 28 -142 40 -81 74 -103 162
-103 38 1 84 4 100 9 21 6 8 -7 -45 -44 -546 -380 -938 -905 -1141 -1528 -19
-56 -38 -101 -44 -99 -5 2 -15 19 -22 38 l-11 34 -11 -28 c-16 -41 -14 -78 8
-118 17 -32 18 -41 6 -91 -15 -67 -21 -78 -41 -78 -33 0 -168 -52 -218 -84
-32 -21 -65 -53 -85 -85 -52 -80 -44 -80 109 7 64 36 198 88 205 80 2 -2 0
-18 -2 -35 -4 -26 -18 -42 -69 -78 -35 -25 -64 -50 -64 -55 0 -5 -8 -11 -17
-14 -10 -3 -29 -16 -43 -29 -35 -32 -125 -67 -188 -74 -28 -3 -52 -9 -52 -14
0 -17 45 -49 78 -55 21 -4 64 0 106 10 98 22 105 24 117 32 24 14 2 -16 -47
-68 -52 -53 -77 -73 -104 -84 -113 -43 -182 -89 -204 -136 -18 -41 -27 -98
-15 -98 5 0 9 6 9 13 0 21 71 84 120 106 27 12 67 21 98 21 61 0 63 -5 31 -96
-11 -32 -22 -63 -23 -69 -2 -5 -15 -37 -31 -70 -15 -33 -28 -64 -30 -70 -1 -5
-12 -32 -24 -60 -50 -112 -73 -230 -74 -385 -1 -127 12 -263 30 -310 3 -8 7
-22 8 -30 4 -31 38 -136 53 -165 9 -16 17 -36 18 -42 1 -7 21 -47 43 -88 111
-207 293 -398 492 -519 82 -49 258 -124 305 -129 17 -2 35 -6 41 -10 6 -4 29
-8 50 -10 22 -2 45 -7 52 -11 6 -4 68 -10 139 -13 l127 -6 50 -42 c272 -229
522 -381 830 -505 332 -134 725 -209 1085 -209 360 0 753 75 1085 209 487 196
882 493 1224 920 l91 114 60 2 c125 4 228 88 317 257 26 51 50 97 52 102 10
24 -59 -55 -97 -110 -54 -81 -98 -124 -152 -148 -37 -17 -106 -25 -117 -13 -2
2 22 45 53 97 96 159 199 383 268 584 43 126 63 143 241 210 31 12 35 13 108
26 37 7 67 16 67 21 0 23 -278 -14 -341 -46 -26 -13 -26 -13 -13 14 8 15 23
83 34 151 11 68 25 151 31 184 16 88 23 503 10 610 -6 50 -17 135 -25 190 -10
72 -12 121 -6 175 5 41 10 104 10 140 l1 65 24 -68 c34 -98 83 -166 134 -182
28 -9 27 8 -2 24 -22 12 -50 69 -62 128 -3 17 -2 66 4 110 6 43 13 101 16 128
2 28 7 73 11 102 4 38 -31 459 -40 469 -1 1 -28 -2 -61 -6 -34 -4 -71 -3 -85
3 -23 8 -18 12 55 37 149 51 277 129 354 217 36 40 87 132 118 212 9 23 11 21
50 -40 102 -162 135 -273 136 -455 0 -87 -17 -154 -46 -175 -12 -9 -47 -24
-77 -34 -88 -29 -109 -43 -131 -90 -12 -24 -24 -43 -27 -42 -14 4 -90 -33
-120 -58 -34 -29 -55 -83 -72 -190 -9 -57 -8 -84 5 -145 18 -84 52 -164 84
-197 30 -31 32 -29 15 14 -17 39 -22 124 -10 159 5 16 12 20 26 17 11 -3 36
-2 55 1 55 11 72 48 74 157 1 32 5 38 29 44 40 10 72 33 72 53 0 10 13 23 33
32 17 7 35 15 40 18 11 6 8 -67 -4 -113 -14 -50 -58 -121 -115 -182 -24 -27
-46 -55 -49 -64 -3 -8 -21 -23 -40 -32 -73 -35 -68 -91 15 -181 68 -74 124
-106 185 -106 100 0 238 51 303 113 18 18 37 49 43 72 6 22 13 49 16 60 3 13
-16 -1 -53 -37 -63 -60 -96 -78 -147 -78 -26 0 -79 19 -54 20 4 0 -2 18 -13
41 l-21 40 26 30 c14 17 25 40 25 52 1 14 15 32 39 49 59 40 94 121 94 214 0
73 1 73 29 80 48 10 93 58 118 125 17 45 30 63 49 70 14 6 42 26 62 46 34 32
37 34 43 15 10 -29 43 -55 73 -57 l28 -1 -1 -78 c-1 -65 -6 -87 -32 -137 -17
-32 -28 -59 -26 -59 15 0 72 30 86 46 30 35 68 121 82 190 23 109 21 261 -4
328 -39 102 -117 135 -190 81 -35 -26 -74 -33 -85 -15 -11 18 -33 11 -40 -12
-11 -36 -48 -108 -55 -108 -4 0 -10 60 -13 133 -6 123 -34 317 -58 397 -6 19
-12 40 -13 45 -2 6 -4 12 -4 15 0 3 -13 39 -28 80 -33 94 -76 179 -126 253
-46 68 -55 94 -69 202 -6 44 -17 93 -25 109 -8 16 -14 36 -14 45 0 9 -9 27
-20 41 l-20 25 0 -54 c0 -68 -7 -62 -19 15 -12 79 -17 97 -46 195 -14 46 -28
95 -31 109 -12 55 -16 30 -11 -61 3 -53 7 -100 8 -105 1 -5 1 -29 0 -54 l-1
-45 -45 93 c-25 50 -50 92 -55 92 -6 0 -10 6 -10 13 0 6 -9 23 -21 37 l-20 25
7 -40 c3 -22 10 -56 15 -75 5 -19 9 -46 8 -60 0 -18 -6 -10 -19 27 -24 67 -90
193 -101 193 -5 0 -9 6 -9 13 0 29 -173 177 -188 162 -2 -2 11 -23 30 -47 20
-24 47 -63 61 -88 26 -45 80 -180 73 -180 -2 0 -27 29 -55 64 -28 35 -62 71
-76 80 l-26 17 16 -38 c9 -21 36 -72 59 -113 24 -41 47 -88 51 -105 8 -38 5
-34 -41 44 -43 75 -141 175 -205 210 l-44 25 45 -50 c24 -27 48 -50 52 -52 4
-2 8 -7 8 -12 0 -4 16 -34 35 -66 37 -60 88 -185 100 -243 6 -29 5 -33 -9 -28
-9 4 -23 10 -31 13 -12 5 -11 -2 5 -37 23 -52 26 -116 5 -165 -18 -44 -86
-133 -102 -134 -7 0 -16 -6 -20 -12 -8 -13 -53 -42 -57 -36 -1 2 -8 26 -15 53
-36 142 -99 252 -207 360 l-80 80 98 -7 c136 -10 205 -42 249 -113 l19 -30 0
30 c0 45 -42 126 -85 164 -47 41 -113 71 -231 105 -49 14 -120 36 -158 49 -71
24 -72 32 -6 43 48 9 145 63 184 103 22 22 37 43 34 47 -4 3 -40 -2 -80 -11
-89 -21 -283 -23 -386 -5 -78 14 -95 30 -33 30 22 0 43 5 46 11 4 5 12 8 18 6
19 -7 127 36 204 81 87 51 203 147 203 168 0 9 -3 14 -7 12 -141 -70 -191 -79
-433 -73 -113 3 -223 7 -245 10 -22 2 -89 9 -150 15 -60 6 -111 12 -113 14 -4
5 131 50 213 71 105 28 319 35 342 11 11 -10 23 -7 23 7 0 6 -15 20 -33 31
-40 23 -139 58 -145 51 -3 -3 -12 0 -19 7 -25 21 -282 14 -396 -10 -81 -18
-217 -59 -290 -87 -10 -4 14 37 55 97 40 57 80 117 88 133 8 17 23 39 33 50
22 23 50 75 42 75 -3 0 -55 -45 -115 -99 -194 -176 -333 -263 -510 -317 -63
-19 -122 -38 -130 -40 -8 -3 -16 -5 -17 -5 -10 2 -126 -47 -158 -67 -83 -52
-108 -92 -57 -92 15 -1 41 -7 57 -14 l30 -13 -45 -8 c-78 -13 -109 -32 -210
-130 -106 -103 -137 -123 -71 -47 23 26 75 90 115 142 41 52 143 163 227 246
390 384 505 524 618 751 70 141 139 377 129 445 -3 21 -4 21 -24 -12z m-740
-1477 c-35 -46 -104 -173 -104 -193 0 -6 9 -6 28 0 23 8 24 8 8 -3 -10 -6 -39
-27 -64 -46 -25 -19 -43 -28 -40 -20 3 8 17 51 33 97 29 90 71 154 124 189 51
34 55 28 15 -24z m-914 3 c-68 -25 -136 -64 -205 -118 -81 -63 -142 -98 -81
-46 110 93 194 146 266 169 42 12 57 9 20 -5z m1047 -150 c-3 -8 -11 -34 -18
-57 -7 -24 -16 -48 -21 -53 -4 -6 -8 -18 -8 -28 0 -14 6 -16 33 -12 67 12 152
36 165 46 6 6 12 7 12 3 0 -3 26 7 57 25 l58 31 -40 -42 c-57 -58 -95 -74
-227 -97 -101 -17 -122 -18 -164 -6 -27 7 -44 13 -37 13 6 1 14 10 18 21 3 11
24 42 46 70 48 61 50 75 7 66 -43 -9 -31 1 23 18 61 19 103 20 96 2z m338 -28
c-14 -93 -94 -205 -173 -241 -28 -13 -44 1 -18 17 74 43 145 138 146 194 0 24
29 71 43 72 5 0 6 -19 2 -42z m-2235 -568 c0 -5 -4 -10 -9 -10 -6 0 -13 5 -16
10 -3 6 1 10 9 10 9 0 16 -4 16 -10z m-73 -40 c-12 -22 -29 -40 -37 -40 -9 0
-31 -13 -50 -30 -45 -37 -49 -37 -41 3 6 27 17 37 76 69 39 21 71 38 72 38 1
0 -8 -18 -20 -40z m-181 -86 c-3 -9 -6 -18 -6 -20 0 -2 -13 -4 -30 -4 -20 0
-43 -12 -70 -36 -22 -20 -43 -34 -47 -30 -9 9 2 18 77 65 72 44 85 49 76 25z
m3284 -121 c0 -8 -38 17 -51 33 -9 11 -2 9 19 -6 17 -13 32 -25 32 -27z
m-3640 -133 c10 -18 8 -20 -21 -20 -31 0 -32 0 -14 20 10 11 19 20 21 20 2 0
8 -9 14 -20z m39 -116 c17 -4 31 -10 31 -14 0 -5 -39 -28 -87 -52 -49 -23 -91
-47 -94 -51 -3 -5 -9 -8 -13 -8 -36 5 -29 -4 9 -10 28 -5 74 -7 104 -3 l53 6
-18 -31 c-21 -36 -12 -52 16 -26 30 27 37 9 11 -26 -13 -17 -21 -33 -18 -35 3
-3 38 6 78 20 41 13 75 23 76 22 2 -2 -8 -25 -22 -52 -14 -27 -25 -50 -25 -52
0 -2 14 -1 31 3 30 7 31 6 25 -21 -47 -226 -29 -509 49 -740 138 -414 461
-746 870 -897 157 -57 236 -72 505 -92 102 -8 222 -21 266 -30 232 -48 471
-170 637 -326 71 -66 72 -67 54 -87 -29 -32 -107 -60 -213 -77 -143 -22 -223
-49 -269 -88 -22 -19 -47 -36 -55 -39 -10 -4 -4 -8 15 -13 104 -25 204 -61
285 -104 172 -90 315 -208 390 -323 38 -59 85 -169 79 -187 -2 -6 -47 24 -99
66 -101 81 -223 163 -305 207 -27 14 -44 26 -36 26 34 0 214 -105 314 -182 20
-17 37 -27 37 -23 0 14 -112 144 -157 181 -178 150 -348 216 -589 230 -127 7
-263 -6 -415 -41 -158 -37 -264 -76 -454 -171 -168 -83 -262 -137 -598 -346
-313 -195 -439 -241 -652 -242 -71 -1 -165 2 -208 5 l-78 6 -50 67 c-265 351
-451 823 -504 1276 -19 163 -19 481 0 637 54 435 201 829 445 1193 92 138 184
248 327 392 l126 128 47 -35 c26 -19 62 -38 79 -41z m3890 -48 c-3 -3 -11 5
-18 17 -13 21 -12 21 5 5 10 -10 16 -20 13 -22z m-2021 -255 c77 -39 124 -105
147 -206 l12 -50 -80 -87 c-95 -105 -145 -133 -217 -125 -94 11 -162 63 -185
141 -8 27 -15 59 -15 69 0 32 -59 149 -97 190 -34 38 -34 39 -15 53 17 12 26
12 62 -1 63 -22 97 -18 180 20 88 42 119 41 208 -4z m-451 -119 c17 -23 39
-67 47 -99 37 -133 50 -169 74 -201 36 -47 113 -84 189 -90 93 -7 142 15 227
102 l68 71 -5 -38 c-13 -90 -98 -200 -190 -245 -271 -134 -580 94 -527 391 7
42 18 70 28 76 9 5 14 13 10 17 -11 10 21 66 35 61 7 -2 26 -22 44 -45z
m-2660 -1604 c-3 -7 -5 -2 -5 12 0 14 2 19 5 13 2 -7 2 -19 0 -25z m0 -40 c-3
-8 -6 -5 -6 6 -1 11 2 17 5 13 3 -3 4 -12 1 -19z m3883 -554 c-18 -21 -24 -10
-9 18 8 14 14 18 17 10 2 -7 -2 -19 -8 -28z m99 -125 c-22 -14 -33 -10 -19 6
7 8 17 12 22 9 6 -4 5 -10 -3 -15z m-714 -239 c-3 -5 -14 -10 -24 -10 -45 0
-83 -88 -61 -144 11 -29 11 -29 -31 9 -48 43 -128 83 -191 93 l-43 8 65 17
c123 34 299 50 285 27z m175 -287 c0 -26 19 -76 94 -248 41 -96 32 -178 -27
-242 -11 -13 -16 -23 -10 -23 17 0 75 44 97 73 19 26 21 41 19 160 l-2 131 33
-59 c18 -33 49 -87 69 -120 63 -100 72 -169 33 -228 l-24 -35 29 10 c73 25
116 128 106 250 l-6 69 27 -19 c15 -10 57 -33 95 -51 67 -32 117 -84 117 -122
0 -20 -42 -124 -82 -204 -65 -127 -185 -281 -298 -382 -157 -139 -362 -244
-590 -303 -387 -99 -981 10 -1480 271 -166 87 -405 247 -398 265 2 4 55 25
118 47 63 21 177 71 253 109 217 110 375 221 797 559 80 64 140 109 144 109
25 0 -154 -251 -220 -310 -19 -17 -70 -48 -113 -69 -125 -63 -184 -150 -97
-143 55 4 82 -18 102 -84 23 -72 72 -118 143 -133 29 -6 115 -11 192 -11 l139
0 11 -27 c6 -16 9 -43 7 -62 -4 -29 -3 -31 9 -15 21 29 16 97 -9 130 -34 44
-56 61 -136 105 -125 71 -131 81 -70 119 39 23 67 16 192 -49 116 -59 153 -64
234 -26 29 13 90 51 135 84 46 33 105 70 132 82 60 27 152 30 208 6 20 -9 37
-12 37 -7 0 17 -104 69 -150 76 -72 9 -70 6 -49 74 10 34 19 74 19 88 0 15 9
40 19 55 l18 29 22 -36 c22 -35 107 -116 121 -116 5 0 -3 30 -16 68 -25 70
-28 99 -18 151 8 38 24 41 24 4z m-877 -280 c19 -42 17 -48 -12 -38 -29 9 -46
42 -30 61 17 21 23 18 42 -23z"/>
<path d="M1540 4253 c-39 -16 -108 -63 -190 -128 -85 -68 -119 -129 -127 -227
-6 -78 3 -82 26 -13 17 50 46 83 89 102 35 15 52 11 52 -13 0 -8 11 -26 25
-39 33 -34 93 -34 150 0 40 23 43 23 58 7 8 -9 22 -32 31 -50 19 -38 38 -47
119 -56 57 -7 107 -38 107 -65 0 -6 8 -11 18 -11 9 0 27 -3 38 -6 19 -5 23 1
39 66 l18 71 -31 32 c-17 18 -42 58 -56 91 -35 78 -70 112 -124 119 -55 7 -76
26 -92 82 -7 26 -20 47 -30 50 -27 8 -87 3 -120 -12z"/>
<path d="M1282 3800 c-12 -11 -29 -35 -38 -53 -20 -37 -36 -178 -37 -322 -1
-85 2 -108 23 -155 33 -77 77 -138 113 -160 38 -24 47 -18 20 13 -29 32 -43
81 -43 153 l0 64 30 0 c36 0 55 27 65 90 9 64 25 100 44 100 9 -1 34 -9 56
-20 51 -25 73 -25 110 0 46 30 59 25 82 -30 20 -46 24 -50 56 -50 18 0 60 9
92 20 32 11 70 19 83 18 25 -3 25 -2 23 72 -3 93 -9 120 -28 120 -9 0 -31 9
-49 21 -19 11 -34 17 -34 14 0 -4 -6 -3 -12 2 -7 6 -25 13 -40 17 -15 3 -50
26 -78 51 -64 57 -109 60 -185 15 -27 -16 -56 -30 -63 -30 -7 0 -28 16 -48 35
-29 29 -42 35 -77 35 -30 0 -50 -6 -65 -20z"/>
<path d="M1630 3392 c-35 -11 -60 -46 -60 -83 0 -24 -9 -52 -25 -75 -65 -95 5
-253 144 -323 48 -25 111 -36 148 -26 27 7 27 8 -19 21 -54 16 -98 62 -98 103
0 28 26 61 48 61 20 0 24 21 8 45 -21 32 -20 63 2 67 9 2 39 -2 67 -9 57 -15
161 -17 169 -4 3 5 -8 51 -26 102 -17 52 -33 100 -34 107 -2 8 -31 13 -91 14
-48 1 -117 3 -153 3 -36 1 -72 0 -80 -3z"/>
</g>
</svg>
