<svg xmlns="http://www.w3.org/2000/svg" viewBox="0 0 190.7 191.22"><defs><style>.cls-1{fill:#0a0909;}.cls-2{fill:#233a70;}.cls-3{fill:#878788;}.cls-4{fill:#888889;}.cls-5{fill:#b82d44;}.cls-6{fill:#b72f45;}.cls-7{fill:#b83147;}.cls-8{fill:#213970;}.cls-9{fill:#848484;}.cls-10{fill:#b23146;}.cls-11{fill:#121212;}.cls-12{fill:#c83f55;}.cls-13{fill:#c93f55;}.cls-14{fill:#d0cece;}.cls-15{fill:#d1cdce;}.cls-16{fill:#c93f56;}.cls-17{fill:#cececf;}.cls-18{fill:#cfcccd;}.cls-19{fill:#c64056;}.cls-20{fill:#364d83;}.cls-21{fill:#d14b61;}.cls-22{fill:#d0ccce;}.cls-23{fill:#d14a60;}.cls-24{fill:#c84459;}.cls-25{fill:#cb445a;}.cls-26{fill:#ccc8ca;}.cls-27{fill:#fbf8f9;}.cls-28{fill:#c14358;}.cls-29{fill:#364e84;}</style></defs><g id="Layer_2" data-name="Layer 2"><g id="Layer_1-2" data-name="Layer 1"><path class="cls-1" d="M88.78,190.88l-17.94-3.6c4.28-1.51,0-2.31-.42-2.92-5.17-6.77-10.48-13.42-15.76-20.1-.85-1.08-1.72-2.15-2.58-3.23l-1.3-2.94a11.55,11.55,0,0,0-.12-3.44c-6.23-17.71-7.6-36.11-7.91-54.67,0-3.93.09-7.87.13-11.8.52-7.82,1-15.63,1.6-24L31.54,65.25c-1,4.53-1.87,8.69-2.77,12.85L22.43,96.55c-4.07,10-9.94,19.35-10.42,30.55-.42,5-.33,9.87,3,14.05l-.14,5.06C6.87,135.47,2.79,123.08,1,110.08-6.26,57.55,26.8,11.17,79,1.67c29-5.28,55.33,2,78,21.29-.06.54-.12,1.08-.19,1.62l-3-.84-.94-.59L145.8,23c-1.43-.61-2.85-1.67-4.31-1.75C116.08,20,93.41,26.07,75.93,45.91,74,49.77,72,53.59,70.35,57.55c-.19.44,1.45,2.3,2.4,2.45,3.67.55,7.4.68,11.11,1,29.83,2.1,58.29,9.27,85,23l20.84,12.33c.11-1.86.22-3.51.32-5.15.23,3.65.46,7.31.7,11L166.89,87.33c-13.66-5.33-27-11.59-41.06-15.73s-28.22-7.19-43-6.27l-15-1.73c1.26,7.14,2.26,12.85,3.27,18.55L80.6,99.29c12,18.58,28.75,32.64,45,47.12l13.24,9.49,20.34,10.37-6,4.67h.09l-1.35-.38c-1-1.44-1.61-3.38-2.95-4.23-8.76-5.54-17.67-10.84-26.53-16.23-1.09-1.21-2.09-2.52-3.28-3.63-15.84-14.74-32.07-29.11-44.1-47.4l-6.3-11.93C67,79.37,65.24,71.6,63.33,63.26a101,101,0,0,0-11.54.16c-1.39.15-3.6,2-3.7,3.3-.63,7.44-.75,14.92-1,22.38.28,11.09.27,22.2.92,33.27A104.45,104.45,0,0,0,57,160.16c4.2,9.3,9.75,17.49,18.65,23q3.55,2,7.13,3.88ZM53.29,13.44l-.11.1L45,18c-2.73,2.09-5.55,4.07-8.18,6.27-5.62,4.7-5.73,5.39-2.92,12.87.06,3.34.13,6.67.2,10L32.6,60.72c10.09.93,11.9-.24,14-9.18.41-1.74.74-3.5,1.1-5.25Q50.38,39.64,53,33L72.92,5.11,59.87,10.23l-5.62,2.21ZM29.08,46.13v-13l-1.79-.49L16.07,48.15,5.86,67.82l19-5.76C26,61.62,28,61.28,28,60.72,28.56,55.88,28.77,51,29.08,46.13Zm86.79-28.08h27.85l.63-1.34c-3.55-3.13-7.93-5-12.38-6.73L119.48,5.92l-5.54-1.43L84.18,3.42l-8.6,6.31L59.7,29.8c-6.21,9-9.21,19.05-10.88,30H65.19L73,40.22c1.06-.3,2.35-.33,3.14-1,3.6-2.91,7-6,10.56-9ZM17.79,96.34c4.95-9.39,7.76-19.43,10-31.72-7.62,2.77-14,4.78-20.1,7.51-1.69.76-3.07,3.52-3.46,5.59C3.44,82.08,3.37,86.58,3,91c-.82,11.88.26,23.5,4.17,34.31Z"/><path class="cls-2" d="M88.78,190.88l-6-3.87q0-12.94,0-25.91l.14.07c2.43-.22,4.9-.24,7.29-.7,6.86-1.33,13.68-2.83,20.53-4.27,6.15,6.91,12.45,13.71,18.36,20.82,1.52,1.84,1.83,4.68,2.7,7.06A92.57,92.57,0,0,1,88.78,190.88Z"/><path class="cls-2" d="M185.05,128.34c-4,10.62-9.15,20.61-16.94,29a10.11,10.11,0,0,1-2.35-1.59q-10-12.24-19.92-24.57l5.07-10.31,2.76-.16Z"/><path class="cls-3" d="M131.82,184.08c-.87-2.38-1.18-5.22-2.7-7.06-5.91-7.11-12.21-13.91-18.36-20.82a8.23,8.23,0,0,0,0-.86l11.69-5.23c8.86,5.39,17.77,10.69,26.53,16.23,1.34.85,2,2.79,2.95,4.23-3.88,3.22-7.6,6.67-11.71,9.57C137.75,181.89,134.65,182.79,131.82,184.08Z"/><path class="cls-4" d="M185.05,128.34l-31.38-7.59q3.65-7.78,7.3-15.56.48-.09,1-.21L189,113.23Q187,120.79,185.05,128.34Z"/><path class="cls-5" d="M190,91.14c-.1,1.64-.21,3.29-.32,5.15L168.84,84c.35-6.57.68-13.15,1.1-19.72a6.4,6.4,0,0,1,1-2.15l14.9,5.12Z"/><path class="cls-6" d="M189,113.23,161.93,105q2.48-8.82,5-17.65L190.7,102.1c-.58,3.38-1.15,6.75-1.72,10.13l0,1Z"/><path class="cls-7" d="M159.22,166.27,138.88,155.9l-8-10.77,9.72-7.91c3.17,3.51,6.51,6.89,9.48,10.57,4.07,5,7.86,10.28,11.78,15.44Z"/><path class="cls-8" d="M20.73,155.22l-2-4,6.22-5,17.87,8.94.91,1.29q1.1,10,2.2,19.9l-10.1-6.16-1.29-1.83a1.16,1.16,0,0,0,0,.18l-12-11.93.18-.11Z"/><path class="cls-4" d="M161.89,163.23c-3.92-5.16-7.71-10.41-11.78-15.44-3-3.68-6.31-7.06-9.47-10.57l-.79-1.63,4.22-5.44,1.77,1.07q9.94,12.3,19.92,24.57a10.11,10.11,0,0,0,2.35,1.59Z"/><path class="cls-9" d="M185.83,67.21l-14.9-5.12-2-1.65L167,46.07l10.89,3.07Q181.88,58.17,185.83,67.21Z"/><path class="cls-10" d="M52.08,161c.86,1.08,1.73,2.15,2.58,3.23,5.28,6.68,10.59,13.33,15.76,20.1.46.61,4.7,1.41.42,2.92l-17-6.45Q53,170.93,52.08,161Z"/><path class="cls-3" d="M52.08,161q.89,9.9,1.78,19.8l-8-4.48-2.19-19.9,7.06,1.64Z"/><path class="cls-8" d="M177.92,49.14,167,46.07l-1.13-1-2-11c2.12,1.72,4.38,3.28,6.32,5.18,2.14,2.1,4,4.49,6,6.76Z"/><path class="cls-3" d="M24.94,146.22l-6.22,5-3.84-5c0-1.69.1-3.37.14-5.06l3.42-.08,6.44,4.24A7,7,0,0,1,24.94,146.22Z"/><path class="cls-11" d="M176.18,46c-2-2.27-3.83-4.66-6-6.76-1.94-1.9-4.2-3.46-6.32-5.18l-7.13-9.52L157,23C164.83,29.44,172.05,36.45,176.18,46Z"/><path class="cls-11" d="M22.48,156.61l12,11.93Z"/><path class="cls-11" d="M20.73,155.22l1.93,1.28Z"/><path class="cls-11" d="M34.53,168.36l1.29,1.83Z"/><path class="cls-4" d="M189,113.24l0-1Z"/><path class="cls-3" d="M153.3,171h-.09c0,.24,0,.48.08.72-.09-.12-.24-.24-.24-.36S153.21,171.07,153.3,171Z"/><path class="cls-12" d="M166.89,87.33q-2.47,8.83-5,17.65-.48.12-1,.21c-3.24-.67-6.47-1.46-9.74-2-23.4-3.84-47-4.22-70.63-3.91L71.15,82.15c7.31-3.23,10.19-9.56,11.71-16.82,14.75-.92,29.1,2.17,43,6.27S153.23,82,166.89,87.33Z"/><path class="cls-13" d="M57,160.16A104.45,104.45,0,0,1,48,122.37c-.65-11.07-.64-22.18-.92-33.27,6.8-.86,13.6-1.73,20.4-2.54.42,0,.89.38,1.33.59l6.3,11.93c-2.68.27-3.84,1.18-3.62,4.42C72.82,123,73.84,142.57,75,162.11c-.1,1-.19,2-.28,3.06-1.27-1.33-2.38-3.57-3.83-3.83C66.33,160.55,61.65,160.5,57,160.16Z"/><path class="cls-14" d="M165.9,45.06l1.13,1,1.86,14.37c-7-2-14-4.23-21.06-5.89-22-5.15-44.18-9.21-67-8.47l-4.95-.17C93.41,26.07,116.08,20,141.49,21.29c1.46.08,2.88,1.14,4.31,1.75l-20.64,11Z"/><path class="cls-15" d="M80.6,99.29c23.63-.31,47.23.07,70.63,3.91,3.27.53,6.5,1.32,9.74,2q-3.65,7.78-7.3,15.56l-2.76.16-16.18-2-1.1,2,10.44,9.15-4.22,5.44c-4.91-4.94-9.8-9.91-14.77-14.8-1-1-2.3-2.44-3.52-2.5-5.69-.27-11.4-.12-17.1-.12l-1.35,1.92,26.8,25-4.27,1.29C109.35,131.93,92.61,117.87,80.6,99.29Z"/><path class="cls-16" d="M80.88,46.08c22.77-.74,44.94,3.32,67,8.47,7.09,1.66,14,3.91,21.06,5.89l2,1.65a6.4,6.4,0,0,0-1,2.15c-.42,6.57-.75,13.15-1.1,19.72-26.69-13.73-55.15-20.9-85-23Q82.38,53.52,80.88,46.08Z"/><path class="cls-17" d="M75,162.11c-1.14-19.54-2.16-39.08-3.51-58.61-.22-3.24.94-4.15,3.62-4.42,12,18.29,28.26,32.66,44.1,47.4,1.19,1.11,2.19,2.42,3.28,3.63l-11.69,5.23L82.94,129.16v32l-.14-.07Z"/><path class="cls-18" d="M24.88,145.31l-6.44-4.24L38.65,118.7c-4.1-.69-6.84-.75-9.27-1.65-4.77-1.76-7.7.36-10.58,3.78-2,2.33-4.51,4.2-6.79,6.27.48-11.2,6.35-20.56,10.42-30.55,1.44.59,2.83,1.49,4.32,1.69,5.32.71,10.67,1.18,16,1.74.31,18.56,1.68,37,7.91,54.67a11.55,11.55,0,0,1,.12,3.44l-7.06-1.64-.91-1.29c-.63-8.84-1.26-17.69-2-27.72Z"/><path class="cls-19" d="M3,91c.39-4.44.46-8.94,1.29-13.3.39-2.07,1.77-4.83,3.46-5.59,6.08-2.73,12.48-4.74,20.1-7.51-2.28,12.29-5.09,22.33-10,31.72Z"/><path class="cls-20" d="M165.9,45.06l-40.74-11L145.8,23l7.06.11.94.59,3,.84,7.13,9.52Z"/><path class="cls-21" d="M73,40.22,65.19,59.81H48.82c1.67-11,4.67-21,10.88-30l12,5.32C72.14,36.82,72.58,38.52,73,40.22Z"/><path class="cls-22" d="M73,40.22c-.43-1.7-.87-3.4-1.3-5.1L75.58,9.73l8.6-6.31q-2.3,9.67-4.58,19.34l1.13.79c9.9-8.48,20.76-15.22,33.21-19.06l5.54,1.43C106,12.05,93.08,19,81.62,30.25h5.09c-3.51,3-7,6.1-10.56,9C75.36,39.89,74.07,39.92,73,40.22Z"/><path class="cls-23" d="M68.79,87.15c-.44-.21-.91-.64-1.33-.59-6.8.81-13.6,1.68-20.4,2.54.28-7.46.4-14.94,1-22.38.1-1.25,2.31-3.15,3.7-3.3a101,101,0,0,1,11.54-.16C65.24,71.6,67,79.37,68.79,87.15Z"/><path class="cls-24" d="M86.71,30.25H81.62C93.08,19,106,12.05,119.48,5.92L132,10l-16.1,8.07Z"/><path class="cls-25" d="M12,127.1c2.28-2.07,4.82-3.94,6.79-6.27,2.88-3.42,5.81-5.54,10.58-3.78,2.43.9,5.17,1,9.27,1.65L18.44,141.07l-3.42.08C11.68,137,11.59,132.09,12,127.1Z"/><path class="cls-20" d="M113.94,4.49C101.49,8.33,90.63,15.07,80.73,23.55l-1.13-.79q2.3-9.68,4.58-19.34Z"/><path class="cls-16" d="M42.75,100c-5.33-.56-10.68-1-16-1.74-1.49-.2-2.88-1.1-4.32-1.69L28.77,78.1,42.88,88.18C42.84,92.11,42.79,96.05,42.75,100Z"/><path class="cls-26" d="M54.25,12.44l5.62-2.21Q56.45,20.17,53,30.11c-2.27.35-4.71.28-6.77,1.12C42,32.94,38,35.15,33.86,37.15c-2.81-7.48-2.7-8.17,2.92-12.87C39.41,22.08,42.23,20.1,45,18c1.25,2.18,2.51,4.36,4.16,7.22,1.53-4.42,2.8-8.06,4.06-11.7l.11-.1Z"/><path class="cls-26" d="M3,91l14.81,5.32-10.64,29C3.24,114.52,2.16,102.9,3,91Z"/><path class="cls-23" d="M42.88,88.18,28.77,78.1c.9-4.16,1.79-8.32,2.77-12.85l12.94-1.08C43.92,72.55,43.4,80.36,42.88,88.18Z"/><path class="cls-6" d="M57,160.16c4.62.34,9.3.39,13.84,1.18,1.45.26,2.56,2.5,3.83,3.83q.48,9,1,18C66.78,177.65,61.23,169.46,57,160.16Z"/><path class="cls-27" d="M33.86,37.15c4.11-2,8.15-4.21,12.39-5.92,2.06-.84,4.5-.77,6.77-1.12,0,1,0,1.92,0,2.88q-2.67,6.66-5.32,13.3l-13.66.87C34,43.82,33.92,40.49,33.86,37.15Z"/><path class="cls-19" d="M24.88,62.06l-19,5.76L16.07,48.15h9.79Z"/><path class="cls-23" d="M82.86,65.33c-1.52,7.26-4.4,13.59-11.71,16.82-1-5.7-2-11.41-3.26-18.55Z"/><path class="cls-3" d="M75.68,183.13q-.5-9-1-18c.09-1,.18-2,.28-3.06l7.82-1q0,13,0,25.91Q79.24,185.08,75.68,183.13Z"/><path class="cls-19" d="M75.58,9.73,71.71,35.12l-12-5.32Z"/><path class="cls-21" d="M34.06,47.16l13.66-.87c-.36,1.75-.69,3.51-1.1,5.25-2.12,8.94-3.93,10.11-14,9.18Q33.32,53.94,34.06,47.16Z"/><path class="cls-23" d="M80.88,46.08q1.49,7.44,3,14.88c-3.71-.28-7.44-.41-11.11-1-1-.15-2.59-2-2.4-2.45,1.67-4,3.67-7.78,5.58-11.64Z"/><path class="cls-28" d="M53,33c0-1,0-1.92,0-2.88q3.42-9.93,6.85-19.88L72.92,5.11Z"/><path class="cls-26" d="M25.86,48.16H16.07L27.29,32.6l1.79.49v13Z"/><path class="cls-26" d="M115.87,18.05,132,10c4.45,1.74,8.83,3.6,12.38,6.73l-.63,1.34Z"/><path class="cls-21" d="M25.86,48.16l3.22-2C28.77,51,28.56,55.88,28,60.72c-.06.56-2,.9-3.13,1.34Q25.36,55.1,25.86,48.16Z"/><path class="cls-29" d="M53.18,13.54c-1.26,3.64-2.53,7.28-4.06,11.7-1.65-2.86-2.91-5-4.16-7.22Z"/><path class="cls-9" d="M125.64,146.41l4.27-1.29h.5l.5,0,8,10.77Z"/><path class="cls-11" d="M153.8,23.74l-.94-.59Z"/><path class="cls-29" d="M54.25,12.44l-1,1Z"/><path class="cls-29" d="M82.94,161.17v-32l27.84,26.18a8.23,8.23,0,0,1,0,.86c-6.85,1.44-13.67,2.94-20.53,4.27C87.84,160.93,85.37,161,82.94,161.17Z"/><path class="cls-29" d="M144.07,130.15,133.63,121l1.1-2,16.18,2-5.07,10.31Z"/><path class="cls-25" d="M130.91,145.13l-.5,0h-.5l-26.8-25,1.35-1.92c5.7,0,11.41-.15,17.1.12,1.22.06,2.49,1.48,3.52,2.5,5,4.89,9.86,9.86,14.77,14.8l.79,1.63Z"/><path class="cls-29" d="M24.88,145.31l16-17.87c.72,10,1.35,18.88,2,27.72l-17.87-8.94A7,7,0,0,0,24.88,145.31Z"/></g></g></svg>